<?xml version="1.0" standalone="no"?>
<!DOCTYPE svg PUBLIC "-//W3C//DTD SVG 20010904//EN"
 "http://www.w3.org/TR/2001/REC-SVG-20010904/DTD/svg10.dtd">
<svg version="1.0" xmlns="http://www.w3.org/2000/svg"
 width="800.000000pt" height="800.000000pt" viewBox="0 0 800.000000 800.000000"
 preserveAspectRatio="xMidYMid meet">

<g transform="translate(0.000000,800.000000) scale(0.100000,-0.100000)"
fill="#000000" stroke="none">
<path d="M3493 7480 c-638 -49 -1126 -158 -1612 -359 -161 -67 -301 -135 -301
-145 0 -7 24 -54 54 -106 115 -204 316 -570 316 -576 0 -4 -24 -29 -53 -55
-29 -26 -65 -70 -81 -99 l-28 -51 2 -1672 c1 -1637 1 -1674 21 -1772 40 -197
140 -400 292 -590 63 -79 253 -261 352 -338 185 -143 290 -207 620 -379 416
-217 600 -335 728 -465 80 -82 111 -130 128 -198 12 -50 47 -125 59 -125 9 0
46 81 55 120 39 181 278 368 840 660 273 141 331 174 448 252 288 191 492 386
642 613 90 138 138 242 183 404 l26 96 6 1680 c4 1391 3 1689 -8 1730 -11 39
-28 63 -83 118 -38 38 -69 72 -69 75 0 3 35 69 79 146 213 380 291 523 291
533 0 6 -66 40 -147 76 -514 229 -949 343 -1548 408 -168 18 -272 22 -650 24
-247 2 -500 -1 -562 -5z m445 -317 l-3 -228 -179 -7 c-98 -3 -202 -9 -231 -13
-52 -6 -53 -6 -59 22 -3 15 -8 64 -11 108 -3 44 -10 133 -16 198 -6 65 -9 120
-7 123 3 2 68 7 144 10 76 4 141 8 143 10 2 2 53 4 113 4 l108 0 -2 -227z
m532 212 c14 -1 38 -3 53 -4 l28 -1 -6 -72 c-13 -161 -26 -296 -31 -341 l-6
-48 -53 6 c-29 4 -133 10 -231 13 l-179 7 -3 215 c-1 118 0 221 3 228 4 12 38
13 203 7 108 -5 208 -9 222 -10z m-1131 -157 c7 -79 15 -181 18 -229 l6 -85
-154 -18 c-85 -9 -183 -21 -219 -26 -36 -5 -66 -8 -67 -7 -1 1 -18 92 -37 202
-20 110 -39 210 -42 223 -4 14 -2 22 6 22 7 0 92 11 189 25 164 23 216 29 266
33 19 2 22 -7 34 -140z m1611 106 c96 -14 177 -27 181 -29 3 -2 -5 -59 -17
-127 -13 -68 -31 -166 -40 -218 -9 -52 -18 -96 -19 -98 -1 -1 -49 4 -106 12
-57 8 -155 21 -218 28 l-113 12 6 96 c3 52 12 155 18 228 l12 133 60 -6 c34
-4 140 -18 236 -31z m655 -138 c47 -14 89 -27 94 -30 9 -6 -114 -393 -129
-410 -5 -4 -52 3 -107 18 -54 14 -143 35 -197 46 -55 11 -101 22 -103 24 -5 4
37 250 63 372 l15 71 139 -33 c77 -18 178 -45 225 -58z m-2861 67 c3 -10 12
-56 21 -103 8 -47 24 -134 35 -194 11 -60 20 -113 20 -117 0 -4 -26 -13 -57
-19 -32 -6 -125 -27 -206 -47 -82 -19 -149 -33 -150 -31 -1 1 -32 94 -69 206
-66 202 -66 203 -45 212 57 24 378 107 424 109 13 1 24 -6 27 -16z m-505 -331
c35 -108 63 -201 63 -206 0 -5 -40 -24 -89 -41 -48 -17 -126 -48 -173 -69 -47
-21 -92 -40 -100 -42 -11 -3 -44 48 -118 182 -57 102 -102 187 -100 190 17 16
419 183 443 183 6 1 39 -88 74 -197z m3718 144 c124 -48 291 -121 301 -130 2
-3 -190 -357 -205 -375 -1 -2 -38 12 -80 31 -43 20 -118 50 -168 68 -49 18
-100 36 -111 40 -22 9 -21 11 42 205 63 193 71 215 79 215 3 0 67 -24 142 -54z
m-1642 -246 c286 -15 689 -59 830 -90 22 -5 114 -26 205 -46 183 -40 416 -114
557 -176 l92 -40 -29 -59 c-28 -55 -51 -72 -65 -50 -8 15 -248 106 -365 140
-259 74 -575 128 -960 163 -198 18 -984 18 -1180 0 -550 -51 -986 -146 -1259
-273 -46 -21 -87 -39 -91 -39 -9 0 -74 110 -68 115 49 43 480 189 663 224 28
6 91 19 140 30 197 42 593 89 837 98 90 3 165 7 167 9 8 8 340 4 526 -6z m83
-250 c68 -5 183 -14 255 -20 133 -10 309 -32 402 -50 28 -6 91 -17 140 -25
210 -36 488 -122 640 -197 189 -93 260 -169 258 -276 -5 -207 -254 -333 -773
-388 -425 -44 -2191 -45 -2630 0 -452 46 -707 141 -779 289 -25 52 -28 144 -6
186 43 83 221 195 424 265 332 116 680 174 1301 219 107 8 656 6 768 -3z
m-2337 -924 c181 -79 443 -126 854 -151 284 -18 1828 -21 2125 -5 510 29 814
96 997 221 23 16 44 29 47 29 3 0 6 -663 6 -1474 0 -1587 1 -1554 -52 -1716
-94 -290 -372 -613 -748 -871 -118 -81 -212 -134 -505 -284 -270 -138 -404
-216 -519 -302 -86 -64 -240 -219 -259 -260 -5 -13 -13 -23 -16 -23 -3 0 -24
26 -46 56 -90 127 -286 280 -520 406 -55 30 -194 103 -310 163 -245 126 -291
152 -445 256 -446 301 -723 679 -770 1050 -6 55 -10 586 -10 1546 l0 1463 59
-40 c32 -22 83 -51 112 -64z"/>
<path d="M3803 6180 c-74 -11 -113 -64 -113 -155 0 -88 32 -134 108 -154 137
-37 235 108 165 245 -27 53 -83 75 -160 64z m92 -75 c20 -20 25 -34 25 -78 0
-73 -26 -107 -80 -107 -70 0 -110 77 -80 156 23 58 92 73 135 29z"/>
<path d="M2150 6026 l0 -156 110 0 110 0 0 25 c0 23 -3 24 -76 27 l-76 3 -1
125 -2 125 -32 3 -33 3 0 -155z"/>
<path d="M2417 6173 c-11 -10 -8 -184 3 -225 15 -54 51 -78 117 -78 111 0 133
34 133 208 l0 102 -35 0 -35 0 0 -118 c0 -130 -5 -142 -55 -142 -55 0 -65 22
-65 148 l0 112 -28 0 c-16 0 -32 -3 -35 -7z"/>
<path d="M2732 6028 l3 -153 30 0 c30 0 30 1 33 58 l3 58 52 -3 c47 -3 52 -5
55 -28 9 -86 11 -90 46 -90 l33 0 -5 53 c-2 28 -11 62 -19 75 -12 20 -12 25 2
38 40 40 25 107 -30 129 -21 9 -68 15 -120 15 l-86 0 3 -152z m178 87 c16 -10
11 -62 -6 -69 -9 -3 -36 -6 -60 -6 l-44 0 0 43 0 44 50 -3 c28 -2 55 -6 60 -9z"/>
<path d="M3135 6170 c-10 -16 -96 -251 -102 -278 -5 -21 -3 -23 28 -20 25 2
35 9 37 23 7 35 23 45 72 45 49 0 65 -10 72 -45 4 -24 68 -36 68 -13 0 7 -23
77 -51 156 l-52 142 -33 0 c-18 0 -36 -5 -39 -10z m54 -117 c7 -21 15 -44 17
-50 4 -9 -6 -13 -34 -13 l-40 0 16 50 c9 28 19 50 22 50 4 0 12 -17 19 -37z"/>
<path d="M3412 6160 c-41 -25 -62 -73 -62 -140 0 -95 49 -150 134 -150 32 0
61 6 75 16 22 16 24 16 33 0 5 -9 18 -16 28 -16 18 0 20 7 20 85 l0 86 -67 -3
c-62 -3 -68 -5 -71 -25 -3 -20 1 -23 32 -23 44 0 51 -11 25 -44 -21 -26 -65
-35 -104 -20 -38 15 -55 91 -34 153 20 57 91 70 135 26 28 -28 74 -34 74 -9 0
9 -15 31 -34 50 -31 31 -39 34 -92 34 -42 0 -69 -6 -92 -20z"/>
<path d="M4290 6024 l0 -156 89 4 c132 6 171 43 171 160 0 105 -53 148 -185
148 l-75 0 0 -156z m147 97 c33 -1 57 -53 50 -110 -7 -59 -43 -93 -96 -89
l-36 3 -3 89 c-2 49 -1 94 1 101 3 6 18 10 33 9 16 -1 39 -3 51 -3z"/>
<path d="M4600 6151 c0 -21 5 -31 15 -31 19 0 19 -9 -2 -32 -22 -25 -11 -33
16 -11 14 12 22 31 24 58 2 37 0 40 -25 43 -25 3 -28 0 -28 -27z"/>
<path d="M4722 6028 l3 -153 118 -3 117 -3 0 26 c0 25 -1 25 -86 25 l-85 0 3
43 3 42 73 0 c72 0 72 0 72 28 l0 27 -75 0 -75 0 0 30 0 29 83 3 c80 3 82 4
82 28 l0 25 -118 3 -118 3 3 -153z"/>
<path d="M5020 6176 c0 -3 -1 -72 -1 -153 l0 -148 28 0 c27 0 28 2 31 58 l3
57 48 0 c58 0 69 -11 73 -70 3 -43 5 -45 36 -48 l33 -3 -5 57 c-3 31 -12 65
-21 75 -15 16 -15 19 4 38 28 28 27 73 -3 108 -23 27 -29 28 -125 31 -56 2
-101 1 -101 -2z m184 -72 c16 -41 -11 -64 -75 -64 l-49 0 0 40 0 40 59 0 c44
0 60 -4 65 -16z"/>
<path d="M5330 6024 l0 -157 102 5 c100 5 102 6 131 38 23 26 28 38 23 63 -3
17 -13 38 -21 47 -13 15 -13 20 0 47 12 23 13 37 4 61 -14 40 -50 52 -155 52
l-84 0 0 -156z m140 96 c26 0 40 -5 44 -16 11 -29 -13 -44 -70 -44 -53 0 -54
1 -54 28 0 33 8 45 28 37 7 -3 31 -5 52 -5z m31 -120 c11 -6 19 -21 19 -35 0
-31 -26 -45 -84 -45 l-46 0 0 45 0 45 46 0 c25 0 54 -5 65 -10z"/>
<path d="M5719 6143 c-6 -21 -29 -84 -50 -141 -47 -124 -48 -132 -11 -132 22
0 31 7 43 33 13 29 18 32 67 35 52 4 53 3 67 -32 13 -30 20 -36 45 -36 17 0
30 3 30 8 0 4 -23 73 -52 155 l-53 147 -37 0 c-33 0 -37 -3 -49 -37z m73 -103
l16 -50 -39 0 c-21 0 -39 1 -39 3 0 14 33 97 39 97 4 0 14 -22 23 -50z"/>
<path d="M3380 5070 l0 -159 -39 -11 c-56 -15 -96 -59 -111 -120 -16 -65 -6
-112 31 -155 l30 -34 -35 -31 c-50 -45 -69 -101 -65 -199 4 -73 8 -88 58 -185
30 -58 53 -107 50 -108 -2 -2 -29 -16 -61 -31 -49 -25 -59 -35 -78 -80 -20
-45 -22 -63 -17 -134 5 -74 3 -90 -22 -160 -51 -138 -74 -280 -68 -407 12
-248 82 -429 221 -574 63 -66 166 -135 248 -168 l48 -19 0 -101 0 -101 -100
-137 -99 -137 -25 48 c-13 26 -32 57 -41 68 l-16 20 5 -20 c2 -11 7 -58 11
-105 6 -83 20 -187 31 -243 6 -28 5 -28 -68 24 -67 48 -206 158 -286 226 l-33
28 15 42 c27 76 29 170 8 253 -11 41 -25 89 -32 105 -17 45 -26 19 -41 -116
-11 -101 -10 -123 4 -179 9 -36 14 -66 12 -69 -3 -2 -51 43 -107 99 -91 91
-100 104 -80 108 12 2 30 15 39 28 31 48 -21 101 -73 73 -13 -7 -24 -21 -24
-31 0 -25 -12 -23 -44 11 l-28 29 26 48 c44 82 51 140 38 287 -6 72 -14 133
-17 136 -8 8 -20 -13 -54 -94 -36 -87 -64 -219 -56 -263 8 -43 -3 -37 -55 31
-22 29 -62 81 -90 117 -46 59 -62 89 -41 76 4 -3 16 1 26 8 25 18 24 74 0 92
-27 20 -43 17 -70 -10 -22 -22 -25 -23 -38 -7 -29 33 -28 40 14 78 48 43 81
92 97 143 19 59 40 190 32 195 -11 7 -151 -190 -166 -234 -7 -20 -13 -53 -14
-73 0 -21 -3 -38 -6 -38 -15 0 -33 37 -34 66 0 34 -76 197 -116 249 -27 36
-92 90 -100 82 -9 -8 27 -140 55 -201 15 -34 42 -78 60 -99 30 -33 31 -38 17
-53 -23 -22 -21 -71 3 -84 28 -14 57 -12 71 5 7 8 16 15 20 15 10 0 91 -112
85 -118 -2 -2 -24 4 -49 13 -40 15 -54 16 -106 6 -70 -14 -191 -50 -203 -61
-14 -12 108 -30 263 -39 80 -5 148 -7 152 -5 3 2 20 -12 37 -32 l30 -37 -25
-19 c-29 -23 -32 -68 -6 -91 24 -22 51 -21 81 0 23 16 25 15 45 -13 12 -16 56
-70 99 -120 42 -50 77 -94 77 -98 0 -3 -25 8 -56 25 -42 24 -72 33 -124 37
-75 5 -240 -6 -240 -16 0 -15 88 -61 145 -77 35 -10 116 -19 195 -22 127 -5
136 -7 159 -30 12 -13 21 -25 20 -26 -38 -20 -44 -28 -47 -58 -6 -58 50 -79
91 -35 l22 24 46 -42 c25 -22 69 -62 97 -88 29 -25 52 -48 52 -50 0 -3 -30 2
-67 10 -48 10 -102 12 -181 8 -147 -7 -160 -15 -80 -48 128 -52 243 -60 338
-22 l41 17 52 -37 c29 -21 78 -54 110 -74 58 -37 75 -59 36 -47 -12 4 -54 8
-93 8 -81 1 -142 -22 -191 -73 l-29 -30 105 0 c98 0 162 10 269 40 l45 12 110
-61 c60 -34 111 -64 113 -65 1 -2 -32 -3 -75 -3 -58 0 -93 -6 -135 -22 -32
-12 -58 -26 -58 -30 0 -34 241 -39 329 -7 42 15 47 15 98 -4 30 -11 63 -20 73
-20 11 0 20 -4 20 -10 0 -5 -6 -10 -14 -10 -24 0 -151 -68 -191 -103 l-39 -34
38 -67 37 -67 25 50 c30 60 68 95 155 143 100 56 105 57 203 3 87 -47 135 -92
164 -151 8 -19 18 -34 22 -34 3 0 22 29 41 65 l34 66 -25 19 c-38 30 -161 98
-192 105 -32 8 -37 25 -8 25 11 0 43 9 72 20 52 20 52 20 116 0 96 -30 312
-24 312 9 0 11 -66 39 -123 51 -26 6 -73 8 -105 4 l-57 -5 101 54 c55 29 111
61 123 69 20 14 28 14 94 -10 59 -20 97 -26 205 -30 73 -2 132 -1 132 4 -1 17
-90 76 -137 90 -44 14 -122 12 -175 -2 -35 -10 -17 12 40 47 31 20 80 53 109
74 l51 36 49 -16 c105 -36 202 -29 331 22 53 22 61 28 46 36 -21 12 -249 15
-324 4 l-55 -8 45 38 c25 21 70 61 101 90 59 56 69 62 69 38 0 -20 37 -38 66
-31 40 10 47 79 9 100 -11 6 -22 12 -24 14 -3 1 6 13 19 27 22 24 29 25 132
25 115 0 220 18 292 51 52 24 82 47 73 56 -4 4 -72 7 -150 7 -142 1 -143 1
-205 -31 -34 -18 -62 -30 -62 -26 0 3 26 36 58 72 45 52 107 128 139 170 1 2
11 -3 21 -12 19 -18 59 -22 78 -9 39 26 36 75 -6 105 -19 13 -19 14 8 46 30
36 9 32 247 46 61 3 135 12 165 19 l55 13 -30 12 c-16 7 -77 24 -133 39 -103
26 -104 26 -154 8 -27 -9 -52 -16 -54 -14 -5 6 76 118 86 118 4 0 13 -7 20
-15 14 -17 43 -19 71 -5 24 13 25 62 3 85 -15 15 -14 19 13 48 16 18 37 44 46
58 35 57 86 249 67 249 -5 0 -31 -23 -60 -50 -58 -57 -150 -231 -150 -284 -1
-29 -19 -66 -34 -66 -3 0 -6 18 -6 40 0 22 -7 56 -14 75 -16 38 -141 221 -158
231 -8 5 -9 -12 -4 -57 13 -128 52 -216 122 -277 l46 -41 -21 -30 -21 -30 -25
25 c-13 13 -31 24 -40 24 -20 0 -55 -36 -55 -56 0 -24 19 -54 35 -54 30 0 24
-22 -27 -87 -29 -37 -60 -75 -68 -84 -8 -9 -28 -34 -45 -55 l-30 -39 -6 90
c-3 50 -16 117 -27 150 -33 97 -63 158 -72 149 -14 -14 -33 -232 -25 -290 3
-28 19 -79 35 -113 l29 -61 -29 -33 -29 -32 -10 27 c-18 48 -84 49 -102 1 -12
-32 11 -73 41 -73 11 0 20 -4 20 -8 0 -12 -199 -206 -205 -200 -3 3 0 18 6 34
15 38 14 225 -1 299 l-12 59 -15 -27 c-21 -41 -53 -175 -52 -221 0 -23 9 -72
19 -111 l19 -70 -42 -37 c-49 -44 -217 -177 -296 -233 l-54 -39 6 30 c4 16 14
88 22 159 8 72 18 145 20 163 9 48 -9 39 -41 -23 -30 -56 -38 -64 -47 -42 -3
6 -46 68 -96 137 l-92 125 3 94 3 94 67 28 c238 98 399 319 443 610 27 182 14
325 -48 510 -31 94 -34 112 -30 190 4 77 2 91 -20 135 -21 42 -34 54 -79 74
-29 13 -55 26 -57 27 -3 2 20 51 49 109 49 95 55 112 58 181 5 96 -9 144 -59
197 l-39 43 25 23 c47 44 55 133 18 204 -20 39 -49 62 -95 75 l-37 12 -3 157
-3 157 -607 3 -608 2 0 -160z m1180 -20 l0 -140 -570 0 -570 0 0 140 0 140
570 0 570 0 0 -140z m-1045 -199 c52 -23 111 -89 124 -138 32 -120 40 -333 17
-444 -17 -80 -37 -120 -126 -259 -189 -296 -209 -333 -240 -442 -32 -112 -36
-247 -11 -408 25 -160 61 -245 141 -327 50 -52 61 -73 38 -73 -19 0 -102 69
-139 115 -77 96 -129 280 -129 452 0 199 59 348 262 658 36 55 77 123 91 152
89 176 98 412 22 582 -22 49 -35 63 -71 83 -56 29 -73 14 -42 -37 17 -30 18
-36 5 -68 -19 -43 -52 -67 -95 -67 -87 0 -124 80 -80 176 26 57 153 82 233 45z
m265 -46 c0 -64 0 -65 28 -65 21 0 32 -8 45 -33 10 -18 33 -49 52 -70 l34 -38
-34 -45 c-19 -25 -38 -57 -41 -70 -6 -24 -9 -25 -78 -22 l-71 3 -6 80 c-8 97
-34 211 -56 245 -9 14 -30 37 -46 53 l-29 27 101 0 101 0 0 -65z m378 23 l-3
-43 -167 -2 -168 -3 0 45 0 45 171 0 170 0 -3 -42z m204 0 c-56 -56 -85 -153
-94 -318 l-3 -45 -71 -3 c-71 -3 -71 -3 -84 28 -7 17 -26 49 -42 71 l-29 40
34 38 c19 21 42 52 52 69 12 20 28 32 44 34 24 3 26 7 29 66 l3 62 101 0 101
0 -41 -42z m284 22 c49 -24 69 -63 68 -129 -1 -35 -7 -49 -28 -68 -40 -34 -99
-32 -136 6 -41 40 -48 76 -22 111 18 23 19 30 8 39 -24 20 -81 -16 -109 -68
-49 -92 -61 -147 -61 -281 1 -189 32 -277 182 -507 182 -280 232 -404 240
-591 7 -168 -36 -353 -107 -458 -33 -49 -144 -154 -163 -154 -22 0 -2 39 46
90 94 98 123 180 147 408 10 100 10 139 0 214 -22 151 -45 205 -179 418 -212
336 -213 337 -219 520 -8 198 17 328 75 392 69 76 172 99 258 58z m-556 -119
c0 -5 -20 -31 -44 -57 -40 -45 -46 -48 -71 -39 -15 6 -43 31 -62 58 l-35 47
106 0 c58 0 106 -4 106 -9z m369 -131 c-27 -106 -23 -214 13 -310 13 -36 86
-168 162 -294 143 -237 184 -320 216 -443 47 -178 49 -305 10 -488 -46 -211
-183 -396 -359 -483 -73 -37 -92 -42 -150 -42 -47 0 -72 5 -87 18 -71 58 -83
179 -23 243 28 30 32 31 99 27 56 -3 74 -8 95 -28 28 -26 30 -38 14 -74 -8
-16 -23 -26 -46 -31 -25 -4 -33 -11 -31 -23 3 -13 12 -16 43 -13 51 4 75 17
172 90 101 76 153 150 193 272 66 201 73 348 24 517 -39 138 -91 239 -232 457
-121 186 -150 262 -167 436 -6 57 17 199 41 258 17 42 18 43 26 20 6 -16 2
-50 -13 -109z m-909 44 c15 -51 20 -94 20 -184 0 -179 -30 -262 -174 -484
-188 -288 -246 -440 -246 -644 0 -188 54 -381 134 -483 46 -57 200 -175 243
-185 43 -11 50 12 15 45 -68 63 -16 122 107 122 42 0 59 -5 78 -23 68 -62 66
-164 -5 -240 -23 -25 -33 -28 -93 -28 -58 0 -77 5 -150 41 -113 56 -237 180
-291 291 -99 202 -121 475 -54 693 43 142 61 179 211 429 85 142 156 272 167
308 27 83 29 227 4 321 -30 115 -1 133 34 21z m-60 -98 c14 -68 7 -157 -18
-232 -19 -55 -113 -224 -124 -224 -4 0 -16 17 -26 38 -11 20 -33 63 -50 94
-34 64 -48 143 -37 214 9 63 84 140 145 150 23 4 51 15 63 25 27 21 30 16 47
-65z m1100 44 c33 0 99 -46 131 -92 21 -29 24 -44 24 -118 0 -90 2 -81 -79
-237 -15 -29 -30 -53 -34 -53 -12 0 -120 201 -131 245 -14 51 -14 209 0 258
l10 38 26 -21 c14 -11 38 -20 53 -20z m-582 -28 c18 -12 62 -74 62 -89 0 -10
-21 -13 -80 -13 -53 0 -80 4 -80 11 0 18 40 78 58 89 21 12 24 12 40 2z m232
-192 l0 -50 -250 0 -250 0 0 50 0 50 250 0 250 0 0 -50z m-502 -133 l22 -42
-2 -535 c-3 -467 -5 -535 -18 -536 -8 -1 -25 -2 -37 -3 -23 -1 -23 -4 -23
-120 l0 -119 -57 -7 c-32 -3 -77 -17 -99 -31 l-42 -24 -52 63 c-49 59 -51 64
-45 108 3 26 1 58 -4 71 -8 21 -5 28 25 52 19 15 41 40 49 56 22 42 29 128 16
193 l-12 56 32 29 c41 36 51 109 25 177 -18 45 -66 95 -92 95 -28 0 -18 19
147 275 65 101 116 204 125 253 3 17 9 32 13 32 3 0 16 -19 29 -43z m472 37
c0 -3 -5 -14 -10 -25 -10 -18 -23 -19 -210 -19 -187 0 -200 1 -210 19 -5 11
-10 22 -10 25 0 3 99 6 220 6 121 0 220 -3 220 -6z m74 -26 c10 -56 63 -155
176 -333 61 -95 110 -177 110 -184 0 -6 -6 -11 -14 -11 -26 0 -74 -50 -92 -95
-26 -69 -16 -141 25 -177 32 -29 32 -30 22 -79 -24 -111 -8 -186 53 -245 37
-35 41 -44 34 -65 -5 -13 -7 -42 -4 -64 6 -46 -2 -64 -61 -129 l-42 -47 -43
24 c-24 14 -67 28 -95 32 l-53 7 0 118 c0 127 -2 133 -53 123 l-27 -5 0 541 0
542 23 39 c12 22 25 40 28 40 4 0 10 -15 13 -32z m-389 -592 l0 -530 -45 0
-45 -1 -3 520 c-1 286 0 526 3 533 3 9 19 12 47 10 l43 -3 0 -529z m140 -1 l0
-530 -47 -1 -48 -2 0 535 0 534 48 -3 47 -3 0 -530z m140 0 l0 -530 -45 0 -45
0 -3 533 -2 533 47 -3 48 -3 0 -530z m-879 340 c-9 -13 -37 -59 -64 -102 l-47
-78 -3 43 c-4 56 29 124 72 145 48 24 62 22 42 -8z m1427 9 c19 -9 42 -29 51
-45 19 -32 34 -129 20 -129 -10 0 -114 164 -114 180 0 13 4 13 43 -6z m-1273
-352 c19 -20 31 -44 35 -76 9 -61 -5 -93 -50 -112 -19 -8 -35 -16 -35 -18 0
-2 7 -21 16 -42 10 -24 17 -69 17 -117 1 -84 -11 -109 -66 -151 -47 -35 -52
-18 -52 197 0 177 2 197 24 257 13 36 28 71 34 78 16 20 47 14 77 -16z m1165
5 c18 -28 52 -161 60 -242 6 -53 -8 -231 -21 -277 -6 -21 -29 -14 -66 20 -41
38 -55 112 -36 193 9 35 19 72 23 81 5 13 -1 20 -28 32 -20 8 -40 23 -46 34
-47 88 61 239 114 159z m-355 -612 l0 -35 -270 0 -270 0 0 35 0 35 270 0 270
0 0 -35z m0 -125 l0 -50 -270 0 -270 0 0 50 0 50 270 0 270 0 0 -50z m-80
-130 c-34 -68 -22 -178 27 -232 15 -17 6 -18 -216 -18 l-232 0 20 29 c32 45
45 122 31 181 -7 28 -16 53 -21 56 -31 19 10 24 201 24 l210 0 -20 -40z m180
-335 l0 -35 -370 0 -370 0 0 35 0 35 370 0 370 0 0 -35z m-5 -107 l0 -33 -365
0 -365 0 -3 32 c-2 23 1 32 14 35 10 1 175 2 368 1 l351 -2 0 -33z m45 -116
c14 -20 27 -40 28 -44 2 -5 -195 -8 -437 -8 -243 0 -441 2 -441 5 0 3 12 23
26 45 l27 40 386 0 386 0 25 -38z m99 -137 l32 -45 -541 0 c-430 0 -540 3
-534 13 4 6 19 27 32 45 l24 32 477 0 478 0 32 -45z m-498 -95 l589 0 -8 -32
c-9 -43 -9 -165 1 -203 7 -29 5 -32 -61 -73 -38 -23 -72 -42 -74 -42 -3 0 -9
11 -12 25 -10 37 -48 52 -81 31 -29 -19 -34 -66 -9 -87 14 -11 12 -14 -12 -27
-33 -17 -164 -62 -164 -56 0 2 16 25 37 51 49 65 136 264 121 279 -8 7 -81
-50 -111 -87 -92 -112 -107 -141 -107 -205 l0 -61 -67 -12 c-56 -10 -79 -10
-128 2 -58 13 -60 15 -55 43 10 69 4 88 -57 169 -65 85 -90 111 -137 141 l-29
18 7 -29 c19 -75 71 -190 112 -245 52 -71 47 -73 -67 -29 -75 29 -79 32 -65
48 41 45 -6 117 -59 93 -14 -6 -27 -23 -31 -37 -3 -14 -8 -25 -9 -25 -2 0 -35
19 -75 41 -70 41 -71 42 -63 73 11 41 10 172 -1 215 -7 30 -6 33 9 28 9 -4
282 -7 606 -7z"/>
<path d="M3553 5106 c-36 -16 -48 -43 -34 -79 22 -57 33 -58 479 -55 443 3
441 3 461 60 8 23 6 33 -14 56 l-23 27 -419 2 c-340 2 -424 0 -450 -11z m841
-36 c28 -10 31 -17 16 -40 -8 -13 -67 -15 -410 -18 -270 -2 -407 1 -420 8 -27
15 -26 47 3 53 47 9 786 7 811 -3z"/>
</g>
</svg>
